<svg width="25" height="24" viewBox="0 0 25 24" fill="none" xmlns="http://www.w3.org/2000/svg">
<rect x="1.06699" y="0.4" width="23.2" height="23.2" rx="11.6" fill="#F6FCFF"/>
<rect x="1.06699" y="0.4" width="23.2" height="23.2" rx="11.6" stroke="#098239" stroke-width="0.8"/>
<path d="M17.912 9.09332L11.6752 15.3301C11.6199 15.3859 11.5447 15.4172 11.4663 15.4172C11.3878 15.4172 11.3127 15.3859 11.2574 15.3301L8.08604 12.1588C8.03035 12.1036 7.99902 12.0284 7.99902 11.9499C7.99902 11.8715 8.03035 11.7963 8.08604 11.741L8.49791 11.3291C8.55315 11.2735 8.62834 11.2421 8.70679 11.2421C8.78523 11.2421 8.86042 11.2735 8.91566 11.3291L11.4634 13.8768L17.0824 8.25782C17.1988 8.14498 17.3838 8.14498 17.5001 8.25782L17.912 8.67557C17.9677 8.73081 17.999 8.806 17.999 8.88445C17.999 8.96289 17.9677 9.03808 17.912 9.09332Z" fill="#098239"/>
</svg>
