<svg width="40" height="41" viewBox="0 0 40 41" fill="none" xmlns="http://www.w3.org/2000/svg">
<g clip-path="url(#clip0_248_4079)">
<path d="M20.0004 0.5C31.0464 0.5 40.0004 9.454 40.0004 20.5V34.5C40.0004 36.0913 39.3683 37.6174 38.2431 38.7426C37.1178 39.8679 35.5917 40.5 34.0004 40.5H21.0004V31.726C21.0004 29.724 21.1224 27.65 22.1724 25.946C22.9242 24.7248 23.9297 23.6796 25.121 22.8813C26.3122 22.0829 27.6612 21.5501 29.0764 21.319L29.4594 21.257C29.6173 21.203 29.7544 21.101 29.8514 20.9653C29.9485 20.8296 30.0007 20.6669 30.0007 20.5C30.0007 20.3331 29.9485 20.1704 29.8514 20.0347C29.7544 19.899 29.6173 19.797 29.4594 19.743L29.0764 19.681C27.0086 19.3432 25.0991 18.3644 23.6175 16.8829C22.136 15.4013 21.1572 13.4918 20.8194 11.424L20.7574 11.041C20.7034 10.8831 20.6014 10.746 20.4657 10.649C20.33 10.5519 20.1673 10.4997 20.0004 10.4997C19.8335 10.4997 19.6709 10.5519 19.5351 10.649C19.3994 10.746 19.2974 10.8831 19.2434 11.041L19.1814 11.424C18.9503 12.8393 18.4176 14.1883 17.6192 15.3795C16.8209 16.5707 15.7756 17.5763 14.5544 18.328C12.8504 19.378 10.7764 19.5 8.77441 19.5H0.0244141C0.547414 8.919 9.29041 0.5 20.0004 0.5Z" fill="#012C16"/>
<path d="M0 21.5H8.774C10.776 21.5 12.85 21.622 14.554 22.672C15.886 23.4928 17.0072 24.614 17.828 25.946C18.878 27.65 19 29.724 19 31.726V40.5H6C4.4087 40.5 2.88258 39.8679 1.75736 38.7426C0.632141 37.6174 0 36.0913 0 34.5L0 21.5ZM40 2.5C40 3.03043 39.7893 3.53914 39.4142 3.91421C39.0391 4.28929 38.5304 4.5 38 4.5C37.4696 4.5 36.9609 4.28929 36.5858 3.91421C36.2107 3.53914 36 3.03043 36 2.5C36 1.96957 36.2107 1.46086 36.5858 1.08579C36.9609 0.710714 37.4696 0.5 38 0.5C38.5304 0.5 39.0391 0.710714 39.4142 1.08579C39.7893 1.46086 40 1.96957 40 2.5Z" fill="#012C16"/>
</g>
<defs>
<clipPath id="clip0_248_4079">
<rect width="40" height="40" fill="white" transform="translate(0 0.5)"/>
</clipPath>
</defs>
</svg>
